<?xml version="1.0" encoding="UTF-8"?>
<!-- Created with Inkscape (http://www.inkscape.org/) -->
<svg width="512" height="512" version="1.2" baseProfile="tiny-ps" viewBox="0 0 512 512" xml:space="preserve" xmlns="http://www.w3.org/2000/svg">
<title>twwlogo</title>
    <path d="m-756.5 256v-1012.5h2025v2025h-2025z" fill="#f8f8f8"/><path d="m-756.5 256v-1012.5h2025v2025h-2025zm389.6 38.735c1.6137-1.0773 5.6848-13.916 45.42-143.23 45.177-147.03 49.681-161.2 51.717-162.75 1.2902-0.98092 23.411-1.25 102.76-1.25 79.354 0 101.47 0.26904 102.76 1.25 2.1161 1.6152 4.2682 8.3809 52.883 166.25 22.526 73.15 41.723 134.58 42.659 136.5 2.1023 4.3221 5.4386 5.1225 7.5495 1.8113 1.6939-2.6571 3.4109-8.3891 46.673-155.81 37.819-128.87 43.681-148.19 45.282-149.21 1.605-1.0202 248.85-0.98309 250.46 0.0376 1.679 1.0658 7.9095 21.618 48.707 160.67 43.294 147.56 42.329 144.45 45.207 145.76 5.0143 2.2847 1.2147 13.353 50.726-147.76 46.215-150.39 48.221-156.7 50.305-158.25 1.3164-0.9807 23.463-1.25 102.8-1.25 79.37 0 101.46 0.26884 102.72 1.25 2.0436 1.5894 7.1258 17.575 54.762 172.25 21.512 69.85 39.878 128.58 40.813 130.5 1.8132 3.7322 4.4126 4.8987 6.6951 3.0044 1.8257-1.5152 1.3601 0.021 44.393-146.5 42.497-144.7 46.718-158.63 48.39-159.69 1.4262-0.90609 181.79-1.1023 184.14-0.20032 2.222 0.85265 2.0715 1.9298-2.3739 16.987-3.6143 12.242-3.8345 13.636-2.5511 16.152 0.7725 1.5146 1.6828 3.6539 2.0229 4.7539 0.5185 1.677 0.7556 1.7557 1.4679 0.48749 0.7742-1.3783 16.016-45.736 16.016-46.611 0-0.20695-46.314-0.37627-102.92-0.37627h-102.92l-1.5239 4.75c-0.8381 2.6125-4.5142 15.1-8.169 27.75-3.6547 12.65-21.639 74.075-39.964 136.5-18.326 62.425-34.075 116.11-34.999 119.31-1.4149 4.8918-2.007 5.7595-3.7537 5.5-1.8405-0.2734-7.1454-16.813-47.162-147.05l-45.088-146.74-220.14-0.02296-8.8847 29.25c-4.8865 16.088-25.147 82.125-45.023 146.75-30.476 99.092-36.42 117.5-37.938 117.5-0.9899 0-2.1752-0.675-2.634-1.5-0.6551-1.1779-53.597-181.25-80.704-274.5l-4.9417-17-265.11-0.50731-2.4884 8.2536c-1.3686 4.5395-3.9085 13.204-5.6442 19.254-1.7357 6.05-19.124 65.45-38.64 132s-36.381 124.07-37.478 127.81c-1.7003 5.8072-2.2976 6.7656-4.0509 6.5-1.814-0.2748-6.5058-14.762-39.774-122.81-20.745-67.375-41.029-133.41-45.077-146.75l-7.3592-24.25h-220.21l-3.2528 10.75c-22.029 72.803-86.624 281.99-87.305 282.73-1.63 1.7751-4.116-0.9151-5.5723-6.0301-0.77471-2.7211-18.22-62.322-38.767-132.45s-39.124-133.58-41.281-141l-3.9222-13.5-103.15-0.25467c-56.732-0.14007-103.15-0.10068-103.15 0.08754 0 0.368 13.05 38.951 15.061 44.528l1.212 3.3613 4.5862-9.5158-3.9298-13.064c-4.3914-14.598-4.6078-16.169-2.348-17.036 2.453-0.9413 182.75-0.68504 184.24 0.26186 1.7238 1.0929 5.5768 13.806 47.776 157.63 19.526 66.55 37.313 126.85 39.526 134 4.4114 14.251 6.5971 17.325 10.477 14.735z" fill="#e7e7e7"/><path d="m-756.5 256v-1012.5h2025v2025h-2025zm264.92 205.51 8.4166-0.014-3.9166-3.3959c-2.4477-2.1223-5.354-3.5909-7.7492-3.9159-2.1079-0.286-4.0517-0.7391-4.3194-1.0069-0.68151-0.6815-136.71-415.41-144.83-441.57-3.75-12.078-6.2631-21.765-5.7733-22.255 0.48099-0.48099 42.038-0.75365 93.293-0.61211l92.426 0.25524 3.8271 12.5c2.1049 6.875 21.598 73.025 43.318 147 48.98 166.82 46.88 159.85 47.855 158.87 0.25378-0.2538 16.925-53.991 37.048-119.42 55.186-179.43 60.61-196.85 61.716-198.2 0.8038-0.9852 22.681-1.25 103.27-1.25 80.597 0 102.47 0.26475 103.27 1.25 1.1394 1.4066 7.7299 22.527 56.246 180.25 36.577 118.91 41.806 135.58 42.89 136.75 0.88989 0.9593 0.12689 3.4904 44.992-149.25 20.921-71.225 40.671-138.28 43.889-149l5.8506-19.5h251.86l6.155 20.5c3.3852 11.275 22.604 76.525 42.709 145 45.605 155.33 44.91 153 45.684 153 0.3531 0 1.5689-3.0375 2.702-6.75 8.4126-27.565 83.718-272.09 88.926-288.75 3.6101-11.55 7.0148-21.562 7.566-22.25 1.4684-1.8317 205.05-1.8317 206.51 0 0.5473 0.6875 2.8814 7.325 5.1867 14.75 11.635 37.472 90.534 293.22 91.858 297.75 0.8436 2.8875 1.9098 5.25 2.3693 5.25s0.8354-0.2099 0.8354-0.4665c0-0.4976 88.608-301.91 91.731-312.03l1.8506-6 92.6-0.25516c76.41-0.21055 92.69-0.0221 93.112 1.0778 0.8026 2.0915-8.8669 32.195-81.484 253.68-47.89 146.07-68.624 208.02-70.032 209.25-1.0996 0.9625-3.187 1.7687-4.6386 1.7916-1.5273 0.024-4.2319 1.4491-6.4198 3.3825l-3.7807 3.3408 10.281 0.4645c5.6543 0.2555 10.643 0.1485 11.086-0.2377 0.4429-0.3863 31.991-95.605 70.107-211.6 38.116-115.99 73.859-224.3 79.429-240.68 7.14-21.001 9.7632-29.926 8.8927-30.258-0.679-0.25872-47.332-0.35444-103.67-0.21272l-102.44 0.25769-3.2394 11c-1.7816 6.05-20.833 71.075-42.336 144.5s-39.526 134.51-40.051 135.75c-1.5772 3.7182-3.7917 2.6803-5.3338-2.5-7.446-25.013-88.13-286.18-88.821-287.5-0.8608-1.6504-7.1369-1.75-110.32-1.75-86.436 0-109.57 0.26244-110.2 1.25-0.5996 0.94667-77.166 248.72-88.381 286-2.137 7.1048-4.1884 8.6614-5.9303 4.5-0.7417-1.772-39.531-133.78-80.732-274.75l-4.8225-16.5h-265.84l-4.3604 15c-20.26 69.695-80.494 274.47-81.256 276.25-1.6384 3.8169-3.7491 2.6482-5.4182-3-9.7091-32.855-88.568-287.13-89.264-287.82-0.57199-0.57199-43.4-0.83638-110.27-0.68076-95.975 0.22336-109.44 0.43775-110.17 1.7544-0.45641 0.825-20.818 66.663-45.249 146.31-24.43 79.644-44.674 145.06-44.986 145.37-2.535 2.535-1.5611 5.7164-76.43-249.68l-12.752-43.5-102.49-0.25769c-56.367-0.14172-103.04-0.0457-103.72 0.21348-0.87082 0.33179 2.443 11.353 11.203 37.258 6.8417 20.233 42.438 128.14 79.103 239.79 36.665 111.65 67.1 203.83 67.633 204.84 0.66862 1.2719 1.6412 1.6641 3.1339 1.2637 1.1904-0.3193 5.9518-0.5867 10.581-0.5942zm256.49 0.1304c0.70844-1.1462 57.655-200.66 61.585-215.77 3.7558-14.435 4.5261-16.375 6.5037-16.375s2.748 1.9396 6.5037 16.375c5.3337 20.5 61.075 215.09 61.803 215.76 0.38132 0.3473 5.5017 0.4021 11.379 0.1218l10.685-0.5096-3.4356-3.2402c-2.3112-2.1797-4.7842-3.421-7.5564-3.7929-2.2664-0.3039-4.4889-0.9257-4.9389-1.3816s-13.687-46.054-29.415-101.33c-33.733-118.55-36.221-126.77-38.803-128.15-2.448-1.3102-9.9889-1.3139-12.432-6e-3 -2.5806 1.3811-3.8287 5.4993-37.932 125.16-16.224 56.925-29.863 103.87-30.307 104.33-0.44457 0.4559-2.6626 1.0777-4.9291 1.3816-2.802 0.3759-5.2504 1.6181-7.6506 3.8818l-3.5298 3.329 8.7795 0.3337c4.8287 0.1836 9.7654 0.4263 10.97 0.5394s2.429-0.1795 2.7199-0.6503zm406.44-0.8941c1.0484-1.9898 75.56-228.82 79.824-243 2.343-7.7928 3.1073-9.25 4.8516-9.25 1.7694 0 2.5304 1.5631 5.2333 10.75 4.0284 13.692 77.999 239.24 79.12 241.25 0.4604 0.825 1.5755 1.4625 2.4781 1.4167 0.9025-0.046 5.6923-0.1584 10.644-0.25l9.0029-0.1667-3.7529-3.3509c-2.2967-2.0508-5.256-3.5862-7.6268-3.9573-2.1306-0.3334-4.089-0.8213-4.3518-1.0842-0.2629-0.2628-17.068-51.02-37.345-112.79-44.682-136.12-43.323-132.22-46.538-133.68-3.0081-1.3706-10.349-1.4792-13.706-0.20284-3.201 1.217-1.4689-3.7549-45.662 131.07-26.274 80.156-37.797 114.01-39.224 115.25-1.1113 0.9625-3.2081 1.7687-4.6597 1.7916-1.5394 0.024-4.2524 1.4665-6.5106 3.4609l-3.8713 3.4192 9.3713 0.3316c5.1542 0.1824 9.918 0.425 10.586 0.5392 0.66815 0.1141 1.6298-0.58 2.1369-1.5425zm454.85-51.75c8.3594-29.15 22.681-79.55 31.825-112 9.1443-32.45 17.155-60.8 17.801-63 0.8547-2.9095 1.7104-4 3.1385-4 1.5646 0 2.3303 1.3203 3.7695 6.5 14.035 50.512 63.882 224.5 64.473 225.04 0.4366 0.3989 5.6023 0.496 11.479 0.2157l10.685-0.5096-3.4355-3.2402c-2.3112-2.1797-4.7843-3.421-7.5564-3.7929-2.2664-0.3039-4.4866-0.9257-4.9336-1.3816-0.4471-0.4559-13.909-46.729-29.915-102.83-34.888-122.28-35.804-125.31-38.304-126.65-2.5193-1.3483-10.017-1.3038-12.593 0.0747-2.541 1.3599 0.1297-7.4712-36.766 121.57-16.826 58.85-30.938 107.37-31.359 107.83s-2.7061 1.0892-5.0775 1.4072c-3.0694 0.4117-5.2635 1.5302-7.6155 3.8823l-3.304 3.3039 8.7445 0.3533c4.8095 0.1943 9.8695 0.3243 11.244 0.2889 2.4366-0.063 2.8855-1.4086 17.699-53.064z" fill="#d4d4d4"/><path d="m-756.5 256v-1012.5h2025v2025h-2025zm553.98 95.44c17.334-60.808 32.077-112.67 32.763-115.25 1.6465-6.1972 3.859-6.202 5.5077-0.0118 0.68539 2.5733 15.428 54.436 32.761 115.25l31.515 110.57 271.51 0.5072 0.97448-2.2536c0.53596-1.2395 17.426-52.429 37.534-113.75s38.373-117.01 40.588-123.75c2.4902-7.5718 4.5407-12.25 5.3694-12.25 0.869 0 4.2911 9.0586 9.7277 25.75 4.6128 14.162 23.205 70.864 41.316 126l32.93 100.25 271.94-0.5071 31.191-109.5c17.155-60.225 31.912-112.09 32.793-115.25 1.9597-7.0325 4.0914-7.598 5.6546-1.5 0.5993 2.3375 15.354 54.2 32.789 115.25l31.7 111 135.42 0.2536c74.482 0.1395 135.75-0.085 136.16-0.5 0.4068-0.4145 32.925-98.629 72.262-218.25s74.916-227.61 79.064-239.98c4.148-12.361 7.5419-23.049 7.5419-23.75 0-1.0251-20.361-1.275-103.9-1.275h-103.9l-2.0181 6.75c-1.11 3.7125-20.347 69.3-42.749 145.75-22.402 76.45-41.159 139.45-41.683 140-0.6273 0.6589-1.3163 0.4428-2.0201-0.6339-0.5874-0.8986-21.142-66.824-45.676-146.5l-44.608-144.87h-221.94l-44.514 144.76c-24.483 79.62-45.047 145.55-45.698 146.5-0.9659 1.4159-1.3543 1.4861-2.109 0.3815-0.5088-0.7446-5.9638-18.52-12.122-39.5-6.1585-20.98-24.465-83.371-40.681-138.65s-30.378-103.54-31.472-107.25l-1.9877-6.75h-266.77l-1.6559 5.75c-0.91077 3.1625-17.179 58.625-36.152 123.25-18.973 64.625-37.44 127.62-41.037 140s-6.9826 22.95-7.5222 23.5c-0.65139 0.6639-1.3234 0.4773-1.9996-0.5553-0.56017-0.8554-21.107-66.78-45.661-146.5l-44.642-144.94-110.43-0.25441c-60.737-0.13992-110.75 0.0851-111.15 0.5-0.39522 0.41493-20.766 65.965-45.268 145.67-24.502 79.702-45.008 145.37-45.569 145.93s-1.33 0.7104-1.7086 0.3318c-0.5111-0.5111-50.916-171.22-84.867-287.43l-1.5339-5.25h-103.97c-82.507 0-103.97 0.25805-103.97 1.2499 0 0.68745 7.409 23.525 16.465 50.75 9.0555 27.225 44.381 134.55 78.502 238.5s62.478 190.01 63.016 191.25l0.97798 2.2536 271.51-0.5072zm-294.17 101.39c-0.93003-0.2484-2.393-2.3363-3.2512-4.6398-2.1655-5.8127-124.04-377.07-138.11-420.7-6.2969-19.532-11.449-36.022-11.449-36.643s0.7118-1.4029 1.5818-1.7368c2.4924-0.95641 180.76-0.67706 182.28 0.28563 0.74827 0.4741 2.914 5.9797 4.8128 12.235 2.7219 8.9664 88.117 299.21 90.066 306.12 0.76438 2.7098 2.0726 2.0767 3.0996-1.5 6.7731-23.587 96.729-313.86 97.773-315.5l1.4334-2.25h202.91l1.447 2.25c0.79582 1.2375 23.327 73.333 50.069 160.21 26.742 86.879 48.826 158.17 49.076 158.42 0.24976 0.2498 0.68901 0.2192 0.97612-0.068 0.6602-0.6602 2.879-8.1378 46.975-158.31 47.867-163.02 47.16-160.67 48.684-161.63 1.7317-1.098 246.92-1.0908 248.65 7e-3 1.6642 1.055 0.079-4.2002 49.67 164.63 48.523 165.19 45.627 155.5 46.486 155.5 0.8459 0-5.0688 18.934 50.45-161.5 26.231-85.25 48.349-156.01 49.151-157.25l1.4581-2.25h100.79c79.739 0 101.15 0.26442 102.52 1.2662 1.1006 0.80475 5.3345 12.923 11.618 33.25 5.4373 17.591 27.489 89.116 49.003 158.94 21.514 69.828 39.323 127.17 39.574 127.42 0.251 0.251 0.705 0.2077 1.0089-0.096 0.3039-0.3039 12.234-40.316 26.511-88.917 60.772-206.87 67.435-229.22 68.724-230.51 1.12-1.12 16.985-1.3522 91.533-1.3396 53.388 9e-3 90.774 0.39207 91.639 0.9388 1.2279 0.77666 0.3004 4.5501-5.8335 23.735-8.7915 27.496-140.53 429.06-142.69 434.96-0.9872 2.6909-2.2948 4.352-3.7281 4.7363-1.2142 0.3255-58.259 0.598-126.77 0.6055-101.04 0.011-124.9-0.2333-126.35-1.2946-1.2793-0.9354-10.851-33.066-33.588-112.75-33.66-117.96-41.782-146.05-42.414-146.68-0.6028-0.60279-0.3522-1.4617-38.572 132.19-19.809 69.272-36.489 126.42-37.067 127-1.3396 1.3397-250.65 2.0004-254.11 0.6733-2.0665-0.7935-4.3429-7.0027-19.16-52.261-33.46-102.21-72.682-220.39-73.616-221.83-0.7742-1.1886-1.1438-0.96931-1.9529 1.1589-1.1065 2.9103-50.473 152.37-74.089 224.31-8.3057 25.3-15.518 46.675-16.028 47.5-0.81559 1.3197-16.142 1.4993-127.91 1.4993-92.043 0-127.29-0.3068-128.1-1.1148-0.61315-0.6132-16.336-54.388-34.94-119.5-35.386-123.85-39.766-138.94-40.561-139.73-0.26648-0.26649-0.48452-0.24304-0.48452 0.0521s-1.3987 5.2076-3.1082 10.917c-1.7095 5.709-18.338 63.662-36.953 128.78-18.615 65.122-34.339 118.9-34.942 119.5-0.78243 0.7825-37.11 1.1367-126.8 1.2365-69.135 0.077-126.46-0.063-127.39-0.312z" fill="#a4a4a4"/><path d="m-756.5 256v-1012.5h2025v2025h-2025zm522.71 206.25c0.81572-1.0683 65.29-226.33 65.29-228.11 0-0.3511 0.675-0.63836 1.5-0.63836s1.5 0.2861 1.5 0.63578c0 1.7874 64.471 227.05 65.287 228.11 0.75783 0.9892 29.3 1.25 136.78 1.25h135.82l9.4718-28.75c16.59-50.355 71.433-217.66 72.116-220 0.3616-1.2375 1.1983-2.25 1.8595-2.25 0.7034 0 9.2111 24.371 20.509 58.75 10.619 32.312 29.193 88.788 41.277 125.5l21.97 66.75h135.92c128.43 0 135.97-0.096 136.84-1.75 0.5051-0.9625 15.458-52.712 33.229-115s32.798-113.25 33.394-113.25c0.596 0 15.218 49.612 32.493 110.25 17.275 60.638 32.034 112.39 32.798 115l1.3889 4.75h272.68l7.0325-21.25c3.8679-11.688 33.178-100.9 65.134-198.25 31.956-97.35 64.654-196.73 72.663-220.84 8.8309-26.585 14.201-44.198 13.645-44.755-0.5477-0.54771-42.769-0.81456-104.82-0.66247l-103.9 0.25468-42.681 145.33c-23.474 79.934-43.132 145.79-43.684 146.34-1.3004 1.3004 1.1776 9.0841-48.287-151.67-23.185-75.35-42.572-137.79-43.082-138.75-0.8752-1.6505-7.2025-1.75-111.27-1.75-87.097 0-110.54 0.26334-111.3 1.25-0.5265 0.6875-19.544 61.775-42.261 135.75-51.164 166.61-47.954 156.47-49.177 155.25-0.5506-0.5506-20.21-66.419-43.687-146.37l-42.686-145.37-132.99-0.23679c-73.143-0.13024-133.48 0.0948-134.09 0.5-0.6042 0.40523-20.114 65.537-43.354 144.74s-42.737 144.9-43.324 146c-1.0095 1.8891-1.1351 1.8337-2.2657-1-0.65833-1.65-20.912-67.125-45.008-145.5s-44.235-143.06-44.752-143.75c-0.74313-0.98675-24.161-1.25-111.2-1.25-87.028 0-110.46 0.26334-111.21 1.25-0.5256 0.6875-20.892 66.275-45.26 145.75-24.367 79.475-44.671 144.91-45.119 145.4-0.45708 0.5061-1.2747-0.1524-1.8624-1.5-0.5762-1.3211-19.981-66.977-43.122-145.9-23.141-78.925-42.403-143.84-42.805-144.25-0.40164-0.41507-47.506-0.64007-104.68-0.5-103.23 0.25293-103.94 0.2684-103.84 2.2547 0.056 1.1 26.527 82.325 58.826 180.5s67.939 206.51 79.202 240.75l20.478 62.25h135.82c107.48 0 136.02-0.2608 136.78-1.25zm-264.09-12c-0.78264-1.2375-33.223-99.225-72.089-217.75-38.866-118.52-72.478-221.03-74.694-227.78-2.2156-6.756-3.7744-12.946-3.4638-13.755 0.49238-1.2831 12.248-1.4389 91.807-1.2163l91.242 0.25527 2.4272 8c1.3349 4.4 22.556 76.529 47.157 160.29s45.038 152.59 45.414 152.97c0.37637 0.3763 1.0388 0.1107 1.472-0.5902 0.43323-0.701 22.739-72.688 49.567-159.97 26.829-87.283 49.23-159.26 49.78-159.95 0.78862-0.98518 22.452-1.25 102.26-1.25 79.799 0 101.47 0.26487 102.26 1.25 0.72754 0.90109 82.837 265.98 97.903 316.06 2.7553 9.1596-3.7063 29.465 62.311-195.81 18.858-64.35 34.913-118.01 35.68-119.25l1.393-2.2539 248.45 0.50781 18.095 61.5c9.9522 33.825 31.073 105.71 46.934 159.74 15.862 54.031 29.182 98.793 29.601 99.471 0.4187 0.6776 1.0778 0.9155 1.4646 0.5288 0.3867-0.3868 22.732-72.374 49.655-159.97 26.924-87.597 49.412-159.83 49.974-160.52 0.8053-0.98504 22.485-1.25 102.28-1.25 79.812 0 101.46 0.26471 102.24 1.25 0.5416 0.6875 23.057 72.948 50.034 160.58 26.977 87.631 49.339 159.62 49.692 159.97s1.0042 0.057 1.4464-0.6586c0.8203-1.3273 3.317-9.7669 61.13-206.64 18.251-62.15 33.695-113.33 34.32-113.73 0.6253-0.40408 41.764-0.74158 91.418-0.75 77.33-0.0131 90.36 0.18962 90.83 1.4132 0.6345 1.6534 0.1681 3.0928-85.017 262.41-35.473 107.99-65.024 196.97-65.668 197.75-0.9965 1.2007-19.872 1.4084-126.8 1.3954-73.068-0.01-126.22-0.3934-127.06-0.9189-0.8431-0.5336-16.61-54.072-38.5-130.73-20.39-71.407-37.522-129.83-38.072-129.83s-17.716 58.445-38.148 129.88-37.756 130.26-38.5 130.73-57.93 0.864-127.08 0.8724l-125.73 0.015-1.4269-2.25c-0.7849-1.2375-20.798-61.2-44.474-133.25-50.273-152.99-46.46-141.67-47.68-141.56-1.1892 0.1053-1.446 0.86916-50.609 150.56-22.037 67.1-40.706 123.01-41.485 124.25l-1.417 2.25-125.73-0.015c-69.15-0.01-126.33-0.3988-127.07-0.8674s-18.064-59.227-38.5-130.57c-20.436-71.347-37.606-129.79-38.156-129.88s-17.72 58.286-38.156 129.72c-20.436 71.436-37.761 130.27-38.5 130.73s-57.922 0.859-127.07 0.8674l-125.73 0.015-1.423-2.25z" fill="#707070"/><path d="m-756.5 256v-1012.5h2025v2025h-2025zm522.84 207.19c0.59937-0.7222 15.617-52.282 33.372-114.58s32.733-113.26 33.283-113.26 15.527 50.969 33.283 113.26 32.773 113.86 33.372 114.58c0.88992 1.0723 25.912 1.3131 136.44 1.3131h135.35l1.4139-2.25c0.77765-1.2375 19.253-56.7 41.057-123.25 21.804-66.55 40.1-122.08 40.657-123.4 0.5845-1.3852 1.3755-2.0202 1.8685-1.5 0.4701 0.49617 19.177 56.702 41.571 124.9s41.225 124.33 41.847 124.73 61.967 0.7416 136.32 0.75c104.29 0.012 135.38-0.2599 136-1.1886 0.4449-0.6622 15.434-52.222 33.309-114.58s32.913-113.45 33.417-113.55c0.5045-0.095 15.489 50.883 33.3 113.28s32.865 114.04 33.455 114.75c1.658 1.9978 271.08 1.9002 272.74-0.099 0.6353-0.7655 34.956-104.15 76.269-229.75 89.676-272.63 83.664-254.18 83.133-255.11-0.2362-0.4125-47.623-0.75-105.3-0.75-99.012 0-104.9 0.0978-105.4 1.75-4.3541 14.451-84.608 288.43-84.608 288.84 0 5.714-9.4902-23.645-46.914-145.13l-44.652-144.96h-223.93l-44.592 144.95c-37.51 121.93-46.908 150.99-46.908 145.05 0-0.6072-81.735-279.69-84.127-287.25l-1.0283-3.25h-133.8c-105.87 0-134 0.26093-134.74 1.25-0.70521 0.93402-78.35 264.16-84.38 286.06-0.57729 2.0965-1.5239 3.6538-2.1035 3.4606-0.57963-0.1932-21.141-65.584-45.692-145.31l-44.638-144.96h-223.95l-44.598 144.94c-24.529 79.718-45.037 145.09-45.574 145.27-0.53723 0.1791-19.369-62.345-41.849-138.94-22.48-76.598-41.714-142.08-42.743-145.52l-1.8707-6.25h-104.89c-57.692 0-105.13 0.38755-105.43 0.86122-0.29274 0.47367 2.1681 8.9112 5.4685 18.75 3.3004 9.8388 38.886 118.01 79.08 240.39s73.716 223.51 74.496 224.75l1.4166 2.25h135.35c110.53 0 135.55-0.2408 136.44-1.3131zm-263.61-12.933c-0.77963-0.9623-67.956-204.9-148.25-450.06-2.0682-6.3148-2.5446-8.9308-1.6862-9.258 0.65808-0.25086 41.879-0.34 91.602-0.19809l90.405 0.25801 47.215 160.79c25.968 88.433 47.498 161.07 47.845 161.42 0.34617 0.3462 0.92521 0.3336 1.2868-0.028s22.621-72.099 49.465-159.42c26.844-87.318 49.264-159.77 49.821-161.01l1.0131-2.25h101.49c95.636 0 101.54 0.10088 102.41 1.75 0.67728 1.2874 87.892 283.53 97.8 316.5 0.78512 2.6125 1.8234 4.75 2.3072 4.75 1.2893 0 1.2289 0.2004 48.058-159.5 23.708-80.85 44.212-150.65 45.564-155.12l2.4589-8.1154 62.375-0.74028c34.306-0.40715 90.308-0.40645 124.45 2e-3l62.073 0.74184 1.173 3.5542c0.6451 1.9548 21.959 74.343 47.364 160.86 25.405 86.519 46.492 157.61 46.86 157.98 0.368 0.3679 0.9533 0.3846 1.3008 0.037 0.3474-0.3475 22.601-72.085 49.453-159.42 26.852-87.331 49.283-159.8 49.847-161.03l1.0256-2.2511h101.49c95.641 0 101.54 0.1008 102.39 1.75 0.6675 1.2857 82.446 265.88 97.359 315 1.0436 3.4375 2.3068 6.25 2.8072 6.25 1.1855 0-0.034 4.0623 49.977-166.5 23.706-80.85 43.794-149.14 44.641-151.75l1.5388-4.75h90.753c49.914 0 91.009 0.25633 91.323 0.56962 0.3133 0.31328-1.1602 5.8258-3.2744 12.25-2.1141 6.4242-35.877 109.33-75.028 228.68s-71.635 217.56-72.185 218.25c-0.7941 0.9957-27.074 1.2016-127.62 1l-126.62-0.25394-37.043-129.5c-20.374-71.225-37.376-130.36-37.783-131.42-0.4865-1.2612-1.0773-1.5795-1.7265-0.93032-0.5427 0.54279-17.74 59.681-38.217 131.42l-37.23 130.43-126.62 0.2538c-100.54 0.2016-126.83 0-127.65-1-0.7693-0.9448-88.467-266.05-90.974-275-1.0113-3.6143-2.9131-1.5064-5.4133 6-1.4197 4.2625-21.818 66.25-45.329 137.75-23.511 71.5-43.202 130.56-43.756 131.25-0.80072 0.9956-27.085 1.2016-127.63 1l-126.62-0.2538-37.5-131c-20.625-72.05-37.95-131-38.5-131s-17.875 58.95-38.5 131l-37.5 131-126.62 0.2538c-100.54 0.2016-126.83 0-127.64-1z" fill="#505050"/><path d="m-756.5 256v-1012.5h2025v2025h-2025zm523.54 207.44c0.35995-0.5824 15.198-51.995 32.973-114.25s32.621-113.19 32.991-113.19 15.216 50.936 32.991 113.19 32.613 113.67 32.973 114.25c0.45541 0.7368 42.158 1.0589 137.12 1.0589h136.46l1.1494-2.5227c0.63217-1.3874 19.224-57.525 41.316-124.75 22.092-67.225 40.527-122.23 40.968-122.23s19.076 55.575 41.413 123.5 40.976 124.06 41.421 124.75c0.6407 0.9899 29.2 1.25 137.27 1.25h136.46l0.9733-2.25c0.5353-1.2375 15.168-52.2 32.517-113.25s31.782-111.68 32.072-112.5c0.4699-1.3333 0.6205-1.3333 1.356 0 0.455 0.825 15.103 51.675 32.552 113 17.448 61.325 32.136 112.29 32.64 113.25 0.8659 1.6536 8.4288 1.75 137.35 1.75 128.91 0 136.48-0.096 137.36-1.75 2.2829-4.2848 159.21-483.63 158.73-484.86-0.7504-1.9557-208.78-2.0909-210.37-0.13675-0.5594 0.6875-20.025 66.05-43.258 145.25s-42.405 144.19-42.605 144.42c-0.2006 0.2291-0.6246 0.1568-0.9422-0.1608-0.3176-0.3177-20.584-65.514-45.037-144.88-24.453-79.367-45.005-144.65-45.672-145.07-1.6231-1.0315-220.86-0.99502-222.49 0.037-0.7 0.44428-21.246 65.721-45.658 145.06-24.412 79.338-44.651 144.52-44.977 144.84-0.3258 0.3258-0.7466 0.4049-0.935 0.1758-0.1884-0.2292-19.353-65.217-42.588-144.42-23.235-79.2-42.711-144.56-43.28-145.25-0.8181-0.98857-28.904-1.25-134.29-1.25-105.4 0-133.46 0.26127-134.26 1.25-0.55127 0.6875-20.01 66.05-43.242 145.25-23.232 79.2-42.411 144.19-42.62 144.42-0.20924 0.2291-0.62575 0.1713-0.92557-0.1285s-20.546-65.484-44.992-144.85-45.013-144.67-45.705-145.11c-1.6332-1.0368-220.87-1.0477-222.5-0.011-0.68207 0.43318-19.494 60.164-41.805 132.73-51.071 166.12-48.46 157.85-49.466 156.82-0.46747-0.4782-19.809-65.432-42.981-144.34-23.172-78.909-42.608-144.05-43.192-144.75-0.8493-1.0234-21.912-1.2788-105.47-1.2788-89.482 0-104.49 0.20389-104.96 1.4261-0.301 0.78437 19.1 61.197 43.112 134.25 24.013 73.053 59.682 181.65 79.265 241.32s36.027 109.06 36.542 109.75c1.2454 1.6633 273.2 1.8528 274.23 0.1911zm-263.25-12.743c-1.0134-0.6441-40.558-120.21-136.18-411.76-8.3084-25.332-15.106-46.594-15.106-47.25 0-0.91469 21.081-1.1926 90.465-1.1926 85.142 0 90.519 0.10297 91.379 1.75 0.5027 0.9625 20.571 68.8 44.596 150.75 51.231 174.75 50.322 171.75 51.82 171.25 0.63239-0.2108 23.484-73.028 50.78-161.82l49.63-161.43h203.68l49.411 160.5c27.176 88.275 49.892 161.08 50.48 161.79 0.58815 0.7108 1.4096 0.9358 1.8254 0.5s21.73-72.342 47.364-159.79 47.038-160.01 47.565-161.25l0.95724-2.25h123.46c92.725 0 123.64 0.28938 124.18 1.1623 0.3951 0.63928 21.926 73.395 47.846 161.68s47.636 160.69 48.256 160.89c0.6203 0.2067 1.487-0.6614 1.926-1.9292 0.4389-1.2677 22.886-74.08 49.882-161.8l49.084-159.5h203.68l49.412 160.46c27.177 88.252 49.91 161.06 50.519 161.79 0.6086 0.7334 1.4382 0.9769 1.8435 0.5411s21.713-72.342 47.35-159.79 47.05-160.01 47.584-161.25l0.9715-2.25h90.522c69.466 0 90.521 0.27762 90.521 1.1935 0 2.6162-150.24 458.34-151.33 459.03-0.644 0.4097-57.222 0.7518-125.73 0.7602-98.147 0.012-124.9-0.2498-126.16-1.2347-1.0112-0.7906-15.09-48.656-38.31-130.25-20.191-70.95-37.167-129.87-37.724-130.93-0.89-1.6963-1.1482-1.7446-2.131-0.3983-0.6151 0.84256-17.723 59.761-38.018 130.93-22.079 77.426-37.519 129.9-38.441 130.65-1.2152 0.9852-27.924 1.2468-126.1 1.2347-68.507-0.01-125.12-0.3724-125.81-0.8088s-13.874-39.242-29.305-86.235c-15.43-46.993-35.931-109.4-45.557-138.69-12.021-36.575-17.939-53.25-18.898-53.25-1.4071 0-3.4488 6.0805-66.978 199.47-14.088 42.885-26.154 78.315-26.813 78.735-0.65958 0.4193-57.251 0.7693-125.76 0.7777-98.171 0.012-124.89-0.2495-126.11-1.2347-0.93829-0.7559-16.082-52.245-38.309-130.25-20.217-70.95-37.214-129.87-37.771-130.93-0.89058-1.6964-1.1489-1.7446-2.1317-0.3983-0.6151 0.84256-17.723 59.761-38.018 130.93-22.079 77.426-37.519 129.9-38.441 130.65-1.2152 0.9852-27.924 1.2468-126.1 1.2347-68.507-0.01-125.1-0.3624-125.77-0.7865z" fill="#303030"/><path d="m-756.5 256v-1012.5h2025v2025h-2025zm523.84 208.19c0.59878-0.7215 15.499-51.866 33.111-113.66 17.612-61.789 32.212-112.53 32.442-112.76 0.23091-0.2309 0.66255 0.40159 0.95922 1.4055s14.754 51.749 32.127 112.77c17.373 61.018 32.077 111.53 32.674 112.25 0.88561 1.0671 26.294 1.3091 137.44 1.3091h136.35l1.4106-2.25c0.77584-1.2375 9.3706-26.55 19.099-56.25 50.569-154.37 62.786-190.8 63.534-189.44 0.4328 0.79032 18.652 55.887 40.488 122.44 21.836 66.55 40.344 122.01 41.13 123.25l1.4295 2.25h136.35c107.86 0 136.57-0.2612 137.39-1.25 0.5705-0.6875 15.265-51.2 32.654-112.25 36.015-126.44 32.633-114.75 33.086-114.3 0.1926 0.19257 14.804 50.952 32.471 112.8 17.666 61.846 32.598 113.02 33.181 113.73 1.6354 1.9704 273.08 1.8727 274.71-0.099 0.8511-1.0256 113.8-343.27 155.63-471.55 4.4596-13.679 4.6106-14.499 2.8994-15.75-1.4676-1.073-21.105-1.3199-105-1.3199-96.868 0-103.32 0.10734-105.16 1.75-1.433 1.2751-13.294 40.422-43.705 144.25-22.956 78.375-42.1 142.88-42.541 143.35-0.441 0.4656-1.4455-1.3344-2.2322-4s-20.746-67.561-44.354-144.21c-38.587-125.29-43.157-139.46-45.238-140.25-3.0504-1.165-218.33-1.1594-221.4 6e-3 -2.1168 0.8048-6.5352 14.543-46.232 143.75-24.14 78.573-44.236 143.54-44.657 144.36-0.6807 1.3333-0.8293 1.3333-1.3375 0-0.3145-0.825-19.449-65.791-42.52-144.37-23.072-78.578-42.232-143.15-42.579-143.5-0.3466-0.3467-60.663-0.74771-134.04-0.89115-126.24-0.24678-133.5-0.1662-135.17 1.5004-1.1045 1.1047-17.391 55.061-43.695 144.76-23.064 78.65-42.076 143.19-42.25 143.42-0.17386 0.2291-0.50398 0.2288-0.7336-9e-4 -0.22961-0.2296-20.362-65.157-44.74-144.28-39.948-129.67-44.552-143.95-46.648-144.75-3.0734-1.1685-218.34-1.1591-221.42 0.01-2.131 0.8102-6.4536 14.259-46.204 143.75-24.119 78.571-44.21 143.53-44.647 144.36-0.70564 1.3333-0.85618 1.3333-1.3549 0-0.30859-0.825-19.422-65.771-42.475-144.32-23.053-78.554-42.218-143.13-42.589-143.5-0.37128-0.37138-47.568-0.79383-104.88-0.93878-85.529-0.21631-104.53-0.0248-106.03 1.0686-1.7348 1.2685-1.6088 1.9969 2.6406 15.264 17.905 55.899 154.28 469.4 155.4 471.18l1.4113 2.25h136.35c111.29 0 136.55-0.2411 137.44-1.3118zm-271.71-37.934c-6.627-20.006-45.877-139.53-131.21-399.56-6.011-18.317-10.929-33.732-10.929-34.255 0-0.59637 33.627-0.8559 90.155-0.69582l90.155 0.25532 47.229 160.83c25.976 88.459 47.761 161.36 48.412 162 0.90228 0.889 1.4737 0.772 2.4091-0.4933 0.67444-0.9124 23.437-73.925 50.583-162.25l49.357-160.59h202.36l49.317 160.25c27.125 88.138 49.716 161.04 50.202 162 1.7434 3.4477 3.6045 1.8007 5.65-5 1.1166-3.7125 21.438-72.9 45.158-153.75s44.253-150.71 45.629-155.25l2.5012-8.2539 247.14 0.50783 47.213 160.79c25.967 88.437 47.764 161.34 48.436 162 0.9559 0.9423 1.4814 0.8544 2.4057-0.4023 0.6505-0.8844 23.412-73.897 50.581-162.25l49.399-160.64h202.37l49.415 160.63c27.178 88.347 49.95 161.36 50.603 162.25 1.0552 1.4364 1.3463 1.4497 2.59 0.1183 0.7706-0.825 21.779-71.025 46.684-156s46.146-157.31 47.2-160.75l1.9169-6.25h89.96c49.478 0 89.96 0.35633 89.96 0.79185 0 2.0395-149.11 455.52-150.26 456.96-0.7893 0.9957-26.865 1.2016-126.62 1l-125.62-0.2538-37.582-131.5c-32.803-114.78-37.821-131.5-39.464-131.5-1.643 0-6.6587 16.717-39.454 131.5l-37.572 131.5-252.33 0.5077-20.625-62.754c-62.343-189.68-71.593-217.25-72.889-217.25-0.7389 0-1.8322 1.2375-2.4296 2.75-1.1475 2.9056-16.038 48.107-62.18 188.75-15.518 47.3-28.668 86.564-29.221 87.254-0.79949 0.9956-26.883 1.2016-126.63 1l-125.62-0.2538-37.514-131.5c-33.525-117.52-37.724-131.5-39.486-131.5-1.7619 0-5.9609 13.984-39.486 131.5l-37.514 131.5-252.33 0.5077z"/></svg>
